<?xml version="1.0" encoding="UTF-8" standalone="no"?>
<!DOCTYPE svg PUBLIC "-//W3C//DTD SVG 1.1//EN" "http://www.w3.org/Graphics/SVG/1.1/DTD/svg11.dtd">
<svg width="100%" height="100%" viewBox="0 0 400 300" version="1.1" xmlns="http://www.w3.org/2000/svg" xmlns:xlink="http://www.w3.org/1999/xlink" xml:space="preserve" xmlns:serif="http://www.serif.com/" style="fill-rule:evenodd;clip-rule:evenodd;stroke-linejoin:round;stroke-miterlimit:2;">
    <rect x="0" y="0" width="400" height="300" style="fill:rgb(224,224,224);"/>
    <g transform="matrix(7.69231,0,0,7.69231,110.769,57.6923)">
        <path d="M1.2,4.47L2.5,3.2L20,20.72L18.73,22L16.73,20L4,20C2.903,20 2,19.097 2,18L2,6C2,5.78 2.04,5.57 2.1,5.37L1.2,4.47M7,4L9,2L15,2L17,4L20,4C21.097,4 22,4.903 22,6L22,18C22,18.6 21.74,19.13 21.32,19.5L16.33,14.5C16.76,13.77 17,12.91 17,12C17,9.257 14.743,7 12,7C11.09,7 10.23,7.24 9.5,7.67L5.82,4L7,4M7,12C7,14.743 9.257,17 12,17C12.5,17 13.03,16.92 13.5,16.77L11.72,15C10.29,14.85 9.15,13.71 9,12.28L7.23,10.5C7.08,10.97 7,11.5 7,12M12,9C13.646,9 15,10.354 15,12C15,12.35 14.94,12.69 14.83,13L11,9.17C11.31,9.06 11.65,9 12,9Z" style="fill:rgb(189,189,189);fill-rule:nonzero;"/>
    </g>
</svg>
