<?xml version="1.0" encoding="UTF-8" standalone="no"?>
<!DOCTYPE svg PUBLIC "-//W3C//DTD SVG 1.1//EN" "http://www.w3.org/Graphics/SVG/1.1/DTD/svg11.dtd">
<svg width="100%" height="100%" viewBox="0 0 400 300" version="1.1" xmlns="http://www.w3.org/2000/svg" xmlns:xlink="http://www.w3.org/1999/xlink" xml:space="preserve" xmlns:serif="http://www.serif.com/" style="fill-rule:evenodd;clip-rule:evenodd;stroke-linejoin:round;stroke-miterlimit:2;">
    <rect x="0" y="0" width="400" height="300" style="fill:rgb(224,224,224);"/>
    <g transform="matrix(7.61905,0,0,7.61905,97.1429,54.7619)">
        <path d="M13,19C13,20.1 13.3,21.12 13.81,22L6,22C4.89,22 4,21.11 4,20L4,4C4,2.9 4.89,2 6,2L7,2L7,9L9.5,7.5L12,9L12,2L18,2C19.1,2 20,2.89 20,4L20,13.09C19.67,13.04 19.34,13 19,13C15.69,13 13,15.69 13,19M20,18L20,15L18,15L18,18L15,18L15,20L18,20L18,23L20,23L20,20L23,20L23,18L20,18Z" style="fill:rgb(189,189,189);fill-rule:nonzero;"/>
    </g>
</svg>
